<?xml version="1.0" encoding="UTF-8" standalone="no"?>
<!DOCTYPE svg PUBLIC "-//W3C//DTD SVG 1.1//EN" "http://www.w3.org/Graphics/SVG/1.1/DTD/svg11.dtd">
<svg width="100%" height="100%" viewBox="0 0 2482 520" version="1.1" xmlns="http://www.w3.org/2000/svg" xmlns:xlink="http://www.w3.org/1999/xlink" xml:space="preserve" xmlns:serif="http://www.serif.com/" style="fill-rule:evenodd;clip-rule:evenodd;stroke-linejoin:round;stroke-miterlimit:2;">
    <g transform="matrix(1,0,0,1,-150,-176.92)">
        <g transform="matrix(27.8775,0,0,27.8775,-2175.53,-5748.65)">
            <path d="M110.725,217.004L110.725,226.934L108.694,226.934L108.694,221.223C108.694,221.091 108.698,220.948 108.705,220.793C108.711,220.639 108.724,220.482 108.742,220.323L106.105,225.428C106.023,225.587 105.913,225.707 105.774,225.789C105.635,225.871 105.477,225.912 105.3,225.912L104.987,225.912C104.81,225.912 104.652,225.871 104.513,225.789C104.375,225.707 104.264,225.587 104.183,225.428L101.545,220.309C101.559,220.473 101.57,220.633 101.579,220.79C101.588,220.947 101.593,221.091 101.593,221.223L101.593,226.934L99.562,226.934L99.562,217.004L101.32,217.004C101.42,217.004 101.507,217.006 101.582,217.011C101.657,217.015 101.724,217.029 101.783,217.052C101.843,217.074 101.896,217.109 101.944,217.157C101.991,217.205 102.038,217.272 102.083,217.358L104.639,222.395C104.73,222.568 104.818,222.747 104.902,222.933C104.986,223.12 105.066,223.31 105.144,223.506C105.221,223.306 105.301,223.111 105.385,222.92C105.47,222.729 105.559,222.547 105.655,222.374L108.204,217.358C108.249,217.272 108.296,217.205 108.343,217.157C108.391,217.109 108.445,217.074 108.504,217.052C108.563,217.029 108.63,217.015 108.705,217.011C108.78,217.006 108.867,217.004 108.967,217.004L110.725,217.004Z" style="fill-rule:nonzero;"/>
            <path d="M114.467,219.866L114.467,226.934L112.354,226.934L112.354,219.866L114.467,219.866ZM114.685,217.931C114.685,218.099 114.651,218.257 114.583,218.404C114.515,218.552 114.422,218.682 114.304,218.793C114.185,218.904 114.048,218.993 113.891,219.059C113.735,219.125 113.568,219.158 113.39,219.158C113.218,219.158 113.056,219.125 112.906,219.059C112.756,218.993 112.624,218.904 112.508,218.793C112.392,218.682 112.301,218.552 112.235,218.404C112.169,218.257 112.136,218.099 112.136,217.931C112.136,217.758 112.169,217.597 112.235,217.447C112.301,217.297 112.392,217.165 112.508,217.052C112.624,216.938 112.756,216.849 112.906,216.786C113.056,216.722 113.218,216.69 113.39,216.69C113.568,216.69 113.735,216.722 113.891,216.786C114.048,216.849 114.185,216.938 114.304,217.052C114.422,217.165 114.515,217.297 114.583,217.447C114.651,217.597 114.685,217.758 114.685,217.931Z" style="fill-rule:nonzero;"/>
            <path d="M117.895,220.63C118.032,220.502 118.173,220.384 118.318,220.275C118.463,220.166 118.619,220.074 118.785,219.999C118.951,219.924 119.13,219.865 119.323,219.822C119.516,219.779 119.726,219.757 119.954,219.757C120.34,219.757 120.682,219.824 120.979,219.958C121.277,220.092 121.528,220.279 121.733,220.517C121.937,220.756 122.091,221.04 122.196,221.369C122.3,221.699 122.353,222.056 122.353,222.443L122.353,226.934L120.24,226.934L120.24,222.443C120.24,222.097 120.16,221.828 120.001,221.635C119.842,221.442 119.608,221.345 119.299,221.345C119.068,221.345 118.851,221.394 118.649,221.492C118.446,221.59 118.25,221.722 118.059,221.891L118.059,226.934L115.946,226.934L115.946,219.866L117.255,219.866C117.518,219.866 117.691,219.984 117.773,220.221L117.895,220.63Z" style="fill-rule:nonzero;"/>
            <path d="M126.149,227.043C125.813,227.043 125.516,226.994 125.26,226.897C125.003,226.799 124.787,226.66 124.612,226.481C124.437,226.301 124.304,226.084 124.213,225.83C124.123,225.575 124.077,225.291 124.077,224.978L124.077,221.325L123.477,221.325C123.368,221.325 123.275,221.29 123.198,221.219C123.121,221.149 123.082,221.045 123.082,220.909L123.082,220.084L124.207,219.866L124.622,218.142C124.677,217.924 124.831,217.815 125.086,217.815L126.19,217.815L126.19,219.88L127.941,219.88L127.941,221.325L126.19,221.325L126.19,224.835C126.19,224.998 126.23,225.134 126.309,225.24C126.389,225.347 126.503,225.401 126.653,225.401C126.731,225.401 126.795,225.393 126.848,225.377C126.9,225.361 126.945,225.343 126.984,225.322C127.023,225.302 127.059,225.284 127.093,225.268C127.127,225.252 127.167,225.244 127.212,225.244C127.276,225.244 127.327,225.259 127.366,225.288C127.404,225.318 127.444,225.364 127.485,225.428L128.126,226.43C127.853,226.634 127.546,226.787 127.205,226.89C126.865,226.992 126.512,227.043 126.149,227.043Z" style="fill-rule:nonzero;"/>
            <path d="M133.871,221.788L137.401,221.788L137.401,225.98C136.893,226.352 136.351,226.623 135.776,226.791C135.201,226.959 134.6,227.043 133.973,227.043C133.155,227.043 132.411,226.915 131.741,226.658C131.071,226.401 130.497,226.047 130.02,225.595C129.543,225.143 129.175,224.607 128.916,223.986C128.657,223.366 128.528,222.692 128.528,221.966C128.528,221.225 128.65,220.544 128.896,219.924C129.141,219.304 129.492,218.769 129.949,218.319C130.405,217.869 130.957,217.52 131.605,217.27C132.252,217.02 132.976,216.895 133.776,216.895C134.189,216.895 134.578,216.929 134.941,216.997C135.305,217.065 135.64,217.158 135.946,217.276C136.253,217.395 136.534,217.535 136.788,217.699C137.043,217.863 137.27,218.04 137.47,218.231L136.802,219.246C136.697,219.405 136.562,219.503 136.396,219.539C136.23,219.576 136.052,219.535 135.861,219.416C135.679,219.307 135.508,219.213 135.347,219.134C135.185,219.054 135.021,218.989 134.852,218.939C134.684,218.889 134.507,218.853 134.321,218.83C134.135,218.808 133.926,218.796 133.694,218.796C133.262,218.796 132.874,218.872 132.528,219.025C132.183,219.177 131.889,219.392 131.646,219.669C131.403,219.946 131.215,220.279 131.083,220.667C130.952,221.056 130.886,221.488 130.886,221.966C130.886,222.493 130.959,222.961 131.104,223.37C131.249,223.778 131.455,224.124 131.721,224.405C131.987,224.687 132.305,224.902 132.675,225.05C133.045,225.197 133.455,225.271 133.905,225.271C134.182,225.271 134.433,225.244 134.658,225.189C134.883,225.135 135.102,225.062 135.316,224.971L135.316,223.465L134.334,223.465C134.189,223.465 134.075,223.426 133.994,223.349C133.912,223.272 133.871,223.174 133.871,223.056L133.871,221.788Z" style="fill-rule:nonzero;"/>
            <path d="M142.35,224.058C141.927,224.076 141.579,224.112 141.307,224.167C141.034,224.221 140.818,224.29 140.659,224.371C140.5,224.453 140.39,224.546 140.329,224.651C140.267,224.755 140.237,224.869 140.237,224.992C140.237,225.232 140.303,225.402 140.434,225.499C140.566,225.597 140.759,225.646 141.014,225.646C141.286,225.646 141.525,225.598 141.729,225.503C141.934,225.407 142.141,225.253 142.35,225.039L142.35,224.058ZM138.546,220.848C138.974,220.471 139.447,220.19 139.968,220.006C140.488,219.822 141.045,219.73 141.641,219.73C142.068,219.73 142.453,219.799 142.796,219.938C143.139,220.076 143.43,220.27 143.668,220.517C143.907,220.765 144.09,221.059 144.217,221.4C144.344,221.741 144.408,222.113 144.408,222.518L144.408,226.934L143.44,226.934C143.24,226.934 143.089,226.907 142.987,226.852C142.885,226.798 142.799,226.684 142.731,226.511L142.581,226.123C142.404,226.273 142.234,226.405 142.07,226.518C141.907,226.632 141.737,226.728 141.562,226.808C141.387,226.887 141.201,226.947 141.003,226.985C140.806,227.024 140.587,227.043 140.346,227.043C140.023,227.043 139.73,227.001 139.467,226.917C139.203,226.833 138.979,226.709 138.795,226.546C138.611,226.382 138.469,226.179 138.369,225.936C138.269,225.692 138.219,225.412 138.219,225.094C138.219,224.839 138.283,224.582 138.41,224.32C138.537,224.059 138.758,223.82 139.071,223.605C139.385,223.389 139.807,223.208 140.339,223.063C140.871,222.917 141.541,222.836 142.35,222.817L142.35,222.518C142.35,222.104 142.264,221.805 142.094,221.621C141.924,221.437 141.682,221.345 141.368,221.345C141.118,221.345 140.914,221.373 140.755,221.427C140.596,221.482 140.454,221.543 140.329,221.611C140.204,221.679 140.082,221.741 139.964,221.795C139.846,221.85 139.705,221.877 139.542,221.877C139.396,221.877 139.273,221.841 139.173,221.768C139.074,221.695 138.992,221.609 138.928,221.509L138.546,220.848Z" style="fill-rule:nonzero;"/>
            <path d="M147.734,220.957C147.952,220.575 148.203,220.275 148.487,220.057C148.771,219.839 149.097,219.73 149.465,219.73C149.783,219.73 150.042,219.805 150.242,219.955L150.106,221.509C150.083,221.609 150.045,221.677 149.993,221.713C149.941,221.75 149.869,221.768 149.778,221.768C149.742,221.768 149.694,221.766 149.635,221.761C149.576,221.756 149.515,221.751 149.451,221.744C149.388,221.737 149.323,221.73 149.257,221.724C149.191,221.717 149.131,221.713 149.076,221.713C148.767,221.713 148.521,221.795 148.337,221.959C148.153,222.122 147.997,222.349 147.87,222.64L147.87,226.934L145.757,226.934L145.757,219.866L147.011,219.866C147.116,219.866 147.203,219.875 147.274,219.894C147.344,219.912 147.403,219.94 147.451,219.979C147.499,220.017 147.535,220.069 147.56,220.132C147.585,220.196 147.607,220.273 147.625,220.364L147.734,220.957Z" style="fill-rule:nonzero;"/>
            <path d="M155.135,221.761C154.976,221.584 154.804,221.46 154.617,221.39C154.431,221.319 154.236,221.284 154.031,221.284C153.836,221.284 153.657,221.323 153.493,221.4C153.329,221.477 153.187,221.601 153.067,221.771C152.947,221.942 152.852,222.163 152.784,222.436C152.716,222.708 152.682,223.038 152.682,223.424C152.682,223.797 152.709,224.11 152.764,224.365C152.818,224.619 152.894,224.825 152.992,224.981C153.09,225.138 153.207,225.251 153.343,225.319C153.479,225.387 153.632,225.421 153.8,225.421C153.954,225.421 154.094,225.406 154.219,225.377C154.344,225.347 154.458,225.305 154.563,225.251C154.667,225.196 154.766,225.127 154.859,225.043C154.953,224.959 155.045,224.862 155.135,224.753L155.135,221.761ZM157.248,216.731L157.248,226.934L155.94,226.934C155.676,226.934 155.504,226.816 155.422,226.58L155.258,226.041C155.117,226.191 154.97,226.327 154.815,226.45C154.661,226.573 154.494,226.678 154.314,226.767C154.135,226.856 153.942,226.924 153.735,226.972C153.528,227.019 153.304,227.043 153.064,227.043C152.696,227.043 152.355,226.961 152.041,226.798C151.728,226.634 151.457,226.398 151.23,226.089C151.003,225.78 150.825,225.402 150.695,224.954C150.566,224.507 150.501,223.997 150.501,223.424C150.501,222.897 150.574,222.407 150.719,221.955C150.864,221.503 151.07,221.112 151.336,220.783C151.602,220.454 151.921,220.196 152.293,220.009C152.666,219.823 153.077,219.73 153.527,219.73C153.895,219.73 154.204,219.782 154.454,219.887C154.704,219.991 154.931,220.132 155.135,220.309L155.135,216.731L157.248,216.731Z" style="fill-rule:nonzero;"/>
            <path d="M163.076,222.552C163.076,222.384 163.054,222.22 163.011,222.061C162.968,221.902 162.897,221.76 162.8,221.635C162.702,221.51 162.573,221.409 162.414,221.332C162.255,221.254 162.062,221.216 161.835,221.216C161.435,221.216 161.122,221.331 160.895,221.56C160.667,221.789 160.517,222.12 160.445,222.552L163.076,222.552ZM160.418,223.778C160.486,224.369 160.665,224.797 160.956,225.063C161.247,225.329 161.622,225.462 162.081,225.462C162.326,225.462 162.537,225.432 162.714,225.373C162.892,225.314 163.049,225.248 163.188,225.176C163.327,225.103 163.454,225.037 163.57,224.978C163.686,224.919 163.807,224.889 163.934,224.889C164.102,224.889 164.23,224.951 164.316,225.073L164.929,225.83C164.711,226.08 164.476,226.283 164.224,226.44C163.972,226.597 163.713,226.719 163.447,226.808C163.181,226.897 162.915,226.958 162.65,226.992C162.384,227.026 162.13,227.043 161.89,227.043C161.394,227.043 160.93,226.962 160.496,226.801C160.062,226.64 159.683,226.4 159.358,226.082C159.033,225.764 158.776,225.369 158.588,224.896C158.399,224.424 158.305,223.874 158.305,223.247C158.305,222.774 158.385,222.327 158.547,221.904C158.708,221.482 158.94,221.111 159.242,220.793C159.544,220.475 159.91,220.223 160.339,220.037C160.769,219.85 161.254,219.757 161.794,219.757C162.262,219.757 162.69,219.83 163.079,219.975C163.467,220.121 163.801,220.332 164.081,220.609C164.36,220.886 164.578,221.226 164.735,221.628C164.892,222.03 164.97,222.486 164.97,222.995C164.97,223.154 164.963,223.283 164.95,223.383C164.936,223.483 164.911,223.563 164.875,223.622C164.839,223.681 164.79,223.722 164.728,223.744C164.667,223.767 164.589,223.778 164.493,223.778L160.418,223.778Z" style="fill-rule:nonzero;"/>
            <path d="M167.976,220.63C168.112,220.502 168.253,220.384 168.399,220.275C168.544,220.166 168.7,220.074 168.865,219.999C169.031,219.924 169.211,219.865 169.404,219.822C169.597,219.779 169.807,219.757 170.034,219.757C170.42,219.757 170.762,219.824 171.06,219.958C171.358,220.092 171.609,220.279 171.813,220.517C172.018,220.756 172.172,221.04 172.277,221.369C172.381,221.699 172.433,222.056 172.433,222.443L172.433,226.934L170.32,226.934L170.32,222.443C170.32,222.097 170.241,221.828 170.082,221.635C169.923,221.442 169.689,221.345 169.38,221.345C169.148,221.345 168.931,221.394 168.729,221.492C168.527,221.59 168.33,221.722 168.14,221.891L168.14,226.934L166.027,226.934L166.027,219.866L167.335,219.866C167.599,219.866 167.771,219.984 167.853,220.221L167.976,220.63Z" style="fill-rule:nonzero;"/>
        </g>
        <g transform="matrix(0.995919,0,0,0.995919,149.518,176.422)">
            <path d="M136.7,456.5C136.7,456.5 136.6,456.2 135.7,521.5C135.7,522.9 130.8,515 127.4,501.1C122.8,482.1 121.7,472.9 114.7,463.5C104.3,449.5 85.1,446.7 70.6,436.8C53.3,425 22.1,395.8 9.5,364.5C-1.7,336.6 0.7,304.5 0.7,304.5C0.7,304.5 8.3,315.1 12.1,318.9C15.9,322.7 23.7,329.5 23.7,329.5C23.7,329.5 13.4,306 9.8,293.6C6,280.4 5,258.7 6.2,239.6C7.3,220.8 13.7,207.5 13.7,207.5C13.7,207.5 18,220.8 20.5,226.7C22.9,232.1 28.7,242.5 28.7,242.5C28.7,242.5 28.2,216.1 28.5,203C28.6,195.3 30.5,178 34.8,165.3C40.4,148.8 49.7,136.5 49.7,136.5C49.7,136.5 53,155.4 55.3,163.4C57.5,170.6 63.7,184.5 63.7,184.5C63.7,184.5 63.3,146.5 65,127.6C65.9,118.3 68.7,104.4 73.6,93.3C79.1,80.7 86.7,71.5 86.7,71.5C86.7,71.5 90.4,84.6 93.1,90.3C95.6,95.7 102.7,105.5 102.7,105.5C102.7,105.5 101.1,91.2 105.5,77.7C110.3,62.4 112,56.7 119.3,44.3C132.4,22 150.7,0.5 150.7,0.5C150.7,0.5 162.7,14.4 175.7,33.9C181,41.9 191.3,59.5 196.2,75.2C201.1,90.8 199.7,106.5 199.7,106.5C199.7,106.5 205.8,96.4 208.3,90.8C211,85 215.7,71.5 215.7,71.5C215.7,71.5 222.7,82.8 228.1,95.7C231.7,104.2 234.1,113.9 235.2,119.3C239,137.8 237.7,184.5 237.7,184.5C237.7,184.5 242.3,179.1 246.9,165.4C251.1,153.1 252.7,138.5 252.7,138.5C252.7,138.5 259.9,140.6 267,167.7C268.8,174.6 272.3,189.2 273.4,202.7C274.9,222.1 272.7,242.5 272.7,242.5C272.7,242.5 279.4,231.5 282.1,225.8C284.6,220.4 287.7,206.5 287.7,206.5C287.7,206.5 293.7,218.1 295.9,242.4C296.6,251 296.7,273.1 293.1,289.5C288.5,311 278.7,327.5 278.7,327.5C278.7,327.5 287.6,322.3 291.4,318.9C295.2,315.4 301.7,306.5 301.7,306.5C301.7,306.5 302.4,335.8 293.6,362.2C286.9,382 267.2,408 249.1,424.1C213.9,455.7 164.7,456.5 164.7,456.5L163.7,407.5C163.7,407.5 199.767,388.182 235.249,330.796C254.704,299.33 258.7,256.5 258.7,256.5C258.7,256.5 246.071,300.884 231.167,324.95C193.265,386.148 162.7,393.5 162.7,393.5L159.7,291.5C159.7,291.5 191.031,281.142 212.28,235.953C220.654,218.147 225.7,183.5 225.7,183.5C225.7,183.5 213.537,227.055 200.44,244.656C172.064,282.791 158.7,281.5 158.7,281.5L156.7,188.5C156.7,188.5 170.859,179.825 187.692,151.659C193.243,142.371 197.7,121.5 197.7,121.5C197.7,121.5 187.983,140.969 182.436,148.059C163.269,172.559 154.7,178.5 154.7,178.5L150.7,89.5L147.7,178.5C147.7,178.5 134.935,172.951 117.768,144.451C112.608,135.884 104.7,121.5 104.7,121.5C104.7,121.5 108.717,138.607 114.845,150.409C132.845,185.076 146.7,191.5 146.7,191.5L143.7,281.5C143.7,281.5 133.955,286.373 100.25,236.538C87.773,218.089 73.7,183.5 73.7,183.5C73.7,183.5 84.927,223.182 94.814,241.072C119.314,285.406 142.7,293.5 142.7,293.5L138.7,395.5C138.7,395.5 113.104,386.643 78.326,332.26C64.032,309.908 40.7,253.5 40.7,253.5C40.7,253.5 60.349,317.835 72.2,338.5C104.486,394.8 137.7,407.5 137.7,407.5L136.7,456.5Z" style="fill:rgb(5,150,105);"/>
        </g>
    </g>
</svg>
