<?xml version="1.0" encoding="UTF-8" standalone="no"?>
<!DOCTYPE svg PUBLIC "-//W3C//DTD SVG 1.1//EN" "http://www.w3.org/Graphics/SVG/1.1/DTD/svg11.dtd">
<svg width="100%" height="100%" viewBox="0 0 522 522" version="1.1" xmlns="http://www.w3.org/2000/svg" xmlns:xlink="http://www.w3.org/1999/xlink" xml:space="preserve" xmlns:serif="http://www.serif.com/" style="fill-rule:evenodd;clip-rule:evenodd;stroke-linejoin:round;stroke-miterlimit:2;">
    <g transform="matrix(1,0,0,1,109.901,-0.5)">
        <path d="M136.7,456.5C136.7,456.5 136.6,456.2 135.7,521.5C135.7,522.9 130.8,515 127.4,501.1C122.8,482.1 121.7,472.9 114.7,463.5C104.3,449.5 85.1,446.7 70.6,436.8C53.3,425 22.1,395.8 9.5,364.5C-1.7,336.6 0.7,304.5 0.7,304.5C0.7,304.5 8.3,315.1 12.1,318.9C15.9,322.7 23.7,329.5 23.7,329.5C23.7,329.5 13.4,306 9.8,293.6C6,280.4 5,258.7 6.2,239.6C7.3,220.8 13.7,207.5 13.7,207.5C13.7,207.5 18,220.8 20.5,226.7C22.9,232.1 28.7,242.5 28.7,242.5C28.7,242.5 28.2,216.1 28.5,203C28.6,195.3 30.5,178 34.8,165.3C40.4,148.8 49.7,136.5 49.7,136.5C49.7,136.5 53,155.4 55.3,163.4C57.5,170.6 63.7,184.5 63.7,184.5C63.7,184.5 63.3,146.5 65,127.6C65.9,118.3 68.7,104.4 73.6,93.3C79.1,80.7 86.7,71.5 86.7,71.5C86.7,71.5 90.4,84.6 93.1,90.3C95.6,95.7 102.7,105.5 102.7,105.5C102.7,105.5 101.1,91.2 105.5,77.7C110.3,62.4 112,56.7 119.3,44.3C132.4,22 150.7,0.5 150.7,0.5C150.7,0.5 162.7,14.4 175.7,33.9C181,41.9 191.3,59.5 196.2,75.2C201.1,90.8 199.7,106.5 199.7,106.5C199.7,106.5 205.8,96.4 208.3,90.8C211,85 215.7,71.5 215.7,71.5C215.7,71.5 222.7,82.8 228.1,95.7C231.7,104.2 234.1,113.9 235.2,119.3C239,137.8 237.7,184.5 237.7,184.5C237.7,184.5 242.3,179.1 246.9,165.4C251.1,153.1 252.7,138.5 252.7,138.5C252.7,138.5 259.9,140.6 267,167.7C268.8,174.6 272.3,189.2 273.4,202.7C274.9,222.1 272.7,242.5 272.7,242.5C272.7,242.5 279.4,231.5 282.1,225.8C284.6,220.4 287.7,206.5 287.7,206.5C287.7,206.5 293.7,218.1 295.9,242.4C296.6,251 296.7,273.1 293.1,289.5C288.5,311 278.7,327.5 278.7,327.5C278.7,327.5 287.6,322.3 291.4,318.9C295.2,315.4 301.7,306.5 301.7,306.5C301.7,306.5 302.4,335.8 293.6,362.2C286.9,382 267.2,408 249.1,424.1C213.9,455.7 164.7,456.5 164.7,456.5L163.7,407.5C163.7,407.5 199.767,388.182 235.249,330.796C254.704,299.33 258.7,256.5 258.7,256.5C258.7,256.5 246.071,300.884 231.167,324.95C193.265,386.148 162.7,393.5 162.7,393.5L159.7,291.5C159.7,291.5 191.031,281.142 212.28,235.953C220.654,218.147 225.7,183.5 225.7,183.5C225.7,183.5 213.537,227.055 200.44,244.656C172.064,282.791 158.7,281.5 158.7,281.5L156.7,188.5C156.7,188.5 170.859,179.825 187.692,151.659C193.243,142.371 197.7,121.5 197.7,121.5C197.7,121.5 187.983,140.969 182.436,148.059C163.269,172.559 154.7,178.5 154.7,178.5L150.7,89.5L147.7,178.5C147.7,178.5 134.935,172.951 117.768,144.451C112.608,135.884 104.7,121.5 104.7,121.5C104.7,121.5 108.717,138.607 114.845,150.409C132.845,185.076 146.7,191.5 146.7,191.5L143.7,281.5C143.7,281.5 133.955,286.373 100.25,236.538C87.773,218.089 73.7,183.5 73.7,183.5C73.7,183.5 84.927,223.182 94.814,241.072C119.314,285.406 142.7,293.5 142.7,293.5L138.7,395.5C138.7,395.5 113.104,386.643 78.326,332.26C64.032,309.908 40.7,253.5 40.7,253.5C40.7,253.5 60.349,317.835 72.2,338.5C104.486,394.8 137.7,407.5 137.7,407.5L136.7,456.5Z" style="fill:rgb(5,150,105);"/>
    </g>
</svg>
